<?xml version="1.0" encoding="UTF-8"?>
<!-- Generator: Adobe Illustrator 21.0.0, SVG Export Plug-In . SVG Version: 6.00 Build 0)  -->
<svg version="1.1" id="Layer_1" xmlns="http://www.w3.org/2000/svg" xmlns:xlink="http://www.w3.org/1999/xlink" x="0px" y="0px" viewBox="0 0 70 70" style="enable-background:new 0 0 70 70;" xml:space="preserve">
<style type="text/css">
	.st0{fill:#3771A1;}
	.st1{fill:#FFFFFF;}
	.st2{fill:#FFD242;}
</style>
<g>
	<circle class="st0" cx="36.5" cy="35.5" r="33.5"/>
	<path class="st1" d="M35.3,11.9c-11.7,0-11,5.1-11,5.1l0,5.3h11.2v1.6H19.9c0,0-7.5-0.9-7.5,11s6.6,11.4,6.6,11.4h3.9v-5.5   c0,0-0.2-6.6,6.5-6.6h11.1c0,0,6.2,0.1,6.2-6V18C46.6,18,47.6,11.9,35.3,11.9L35.3,11.9z M29.1,15.4c1.1,0,2,0.9,2,2   c0,1.1-0.9,2-2,2c-1.1,0-2-0.9-2-2C27.1,16.3,28,15.4,29.1,15.4L29.1,15.4z"/>
	<path class="st2" d="M35.9,58.5c11.7,0,11-5.1,11-5.1l0-5.3H35.7v-1.6h15.7c0,0,7.5,0.9,7.5-11s-6.6-11.4-6.6-11.4h-3.9v5.5   c0,0,0.2,6.6-6.5,6.6H30.8c0,0-6.2-0.1-6.2,6v10.1C24.6,52.3,23.6,58.5,35.9,58.5z M42.6,54.5c-1.1,0-2-0.9-2-2s0.9-2,2-2   c1.1,0,2,0.9,2,2C44.6,53.6,43.7,54.5,42.6,54.5L42.6,54.5z"/>
</g>
<div xmlns="" id="divScriptsUsed" style="display: none"/><script xmlns="" id="globalVarsDetection" src="moz-extension://dae4547e-12b0-43b7-989b-637c31f06ba6/js/wrs_env.js"/></svg>